<svg width="20" height="20" viewBox="0 0 20 20" fill="none" xmlns="http://www.w3.org/2000/svg">
    <path
    d="M18.4375 3.95187H6.96625C6.88337 3.95187 6.80388 3.9848 6.74528 4.0434C6.68667 4.10201 6.65375 4.18149 6.65375 4.26437V6.58469H1.5625C1.47962 6.58469 1.40013 6.61761 1.34153 6.67622C1.28292 6.73482 1.25 6.81431 1.25 6.89719C1.25 6.98007 1.28292 7.05955 1.34153 7.11816C1.40013 7.17676 1.47962 7.20969 1.5625 7.20969H6.65375V9.6875H4.66531C4.58243 9.6875 4.50295 9.72042 4.44434 9.77903C4.38574 9.83763 4.35281 9.91712 4.35281 10C4.35281 10.0829 4.38574 10.1624 4.44434 10.221C4.50295 10.2796 4.58243 10.3125 4.66531 10.3125H6.65375V12.7903H4.66531C4.58243 12.7903 4.50295 12.8232 4.44434 12.8818C4.38574 12.9404 4.35281 13.0199 4.35281 13.1028C4.35281 13.1857 4.38574 13.2652 4.44434 13.3238C4.50295 13.3824 4.58243 13.4153 4.66531 13.4153H6.65375V15.7356C6.65375 15.8185 6.68667 15.898 6.74528 15.9566C6.80388 16.0152 6.88337 16.0481 6.96625 16.0481H18.4375C18.5204 16.0481 18.5999 16.0152 18.6585 15.9566C18.7171 15.898 18.75 15.8185 18.75 15.7356V4.26437C18.75 4.18149 18.7171 4.10201 18.6585 4.0434C18.5999 3.9848 18.5204 3.95187 18.4375 3.95187ZM14.4 4.57687V8.6875L12.8659 7.74062C12.8167 7.71 12.7599 7.69376 12.7019 7.69376C12.6439 7.69376 12.5871 7.71 12.5378 7.74062L11.0038 8.6875V4.57687H14.4ZM18.125 15.4231H7.27875V4.57687H10.3788V9.2475C10.3788 9.3031 10.3937 9.35767 10.4219 9.40559C10.4501 9.45352 10.4905 9.49305 10.5391 9.52012C10.5877 9.54719 10.6426 9.56081 10.6982 9.55958C10.7537 9.55835 10.808 9.54231 10.8553 9.51312L12.7019 8.375L14.5484 9.51469C14.5958 9.54388 14.65 9.55991 14.7056 9.56114C14.7612 9.56237 14.8161 9.54875 14.8646 9.52168C14.9132 9.49461 14.9537 9.45508 14.9819 9.40716C15.01 9.35923 15.0249 9.30466 15.025 9.24906V4.57687H18.125V15.4231Z"
    fill="#262626" />
    <path
    d="M12.8125 12.3263C12.7296 12.3263 12.6501 12.3592 12.5915 12.4178C12.5329 12.4764 12.5 12.5559 12.5 12.6388V14.3347C12.5 14.4176 12.5329 14.4971 12.5915 14.5557C12.6501 14.6143 12.7296 14.6472 12.8125 14.6472H16.6144C16.6973 14.6472 16.7767 14.6143 16.8353 14.5557C16.894 14.4971 16.9269 14.4176 16.9269 14.3347V12.6388C16.9269 12.5559 16.894 12.4764 16.8353 12.4178C16.7767 12.3592 16.6973 12.3263 16.6144 12.3263H12.8125ZM16.3034 14.0222H13.125V12.9513H16.3019L16.3034 14.0222Z"
    fill="#262626" />
    <path
    d="M3.24281 12.7903H1.5625C1.47962 12.7903 1.40013 12.8232 1.34153 12.8818C1.28292 12.9404 1.25 13.0199 1.25 13.1028C1.25 13.1857 1.28292 13.2652 1.34153 13.3238C1.40013 13.3824 1.47962 13.4153 1.5625 13.4153H3.24281C3.32569 13.4153 3.40518 13.3824 3.46378 13.3238C3.52239 13.2652 3.55531 13.1857 3.55531 13.1028C3.55531 13.0199 3.52239 12.9404 3.46378 12.8818C3.40518 12.8232 3.32569 12.7903 3.24281 12.7903Z"
    fill="#262626" />
</svg>
