<svg width="16" height="16" viewBox="0 0 16 16" fill="none" xmlns="http://www.w3.org/2000/svg">
<g clip-path="url(#clip0_1315_140)">
<g clip-path="url(#clip1_1315_140)">
<path fill-rule="evenodd" clip-rule="evenodd" d="M7.99938 7.67197e-07C7.68267 9.18804e-07 7.37309 0.0939338 7.10978 0.269917C6.84647 0.4459 6.64128 0.696025 6.52015 0.988649C6.39903 1.28127 6.36741 1.60325 6.42931 1.91384C6.49121 2.22444 6.64385 2.5097 6.8679 2.73353C7.09195 2.95736 7.37736 3.10971 7.68801 3.17131C7.99867 3.23291 8.32061 3.20098 8.61312 3.07957C8.90562 2.95815 9.15555 2.75271 9.33127 2.48923C9.507 2.22576 9.60063 1.91608 9.60032 1.59937C9.60032 1.38921 9.5589 1.18111 9.47842 0.986958C9.39795 0.792811 9.28 0.616428 9.13132 0.467892C8.98264 0.319356 8.80614 0.20158 8.61191 0.121296C8.41769 0.0410122 8.20954 -0.000205075 7.99938 7.67197e-07ZM7.99938 2.66301C7.78839 2.66301 7.58214 2.60045 7.40671 2.48323C7.23128 2.36601 7.09455 2.1994 7.01381 2.00448C6.93307 1.80955 6.91194 1.59506 6.9531 1.38812C6.99427 1.18119 7.09587 0.991111 7.24506 0.84192C7.39425 0.69273 7.58433 0.591129 7.79126 0.549968C7.99819 0.508806 8.21269 0.529932 8.40761 0.610673C8.60254 0.691415 8.76915 0.828145 8.88637 1.00357C9.00358 1.179 9.06615 1.38525 9.06615 1.59624C9.0676 1.73725 9.04108 1.87715 8.98811 2.00785C8.93515 2.13854 8.85681 2.25744 8.7576 2.35766C8.6584 2.45788 8.54031 2.53744 8.41016 2.59174C8.28002 2.64603 8.1404 2.67398 7.99938 2.67398V2.66301Z" fill="#F17EB8"/>
<path fill-rule="evenodd" clip-rule="evenodd" d="M9.06584 3.46655H9.00161L8.94522 3.49475C8.65116 3.6416 8.32697 3.71805 7.99828 3.71805C7.66959 3.71805 7.34541 3.6416 7.05135 3.49475L6.99495 3.46655H6.93073C6.57743 3.46738 6.23884 3.60809 5.98902 3.85792C5.7392 4.10774 5.59848 4.44633 5.59766 4.79963V6.40057C5.59766 6.50561 5.61837 6.60962 5.65862 6.70665C5.69887 6.80368 5.75785 6.89182 5.8322 6.96603C5.90655 7.04024 5.99481 7.09905 6.09192 7.13911C6.18903 7.17916 6.29308 7.19967 6.39813 7.19947H9.60001C9.70505 7.19967 9.80911 7.17916 9.90621 7.13911C10.0033 7.09905 10.0916 7.04024 10.1659 6.96603C10.2403 6.89182 10.2993 6.80368 10.3395 6.70665C10.3798 6.60962 10.4005 6.50561 10.4005 6.40057V4.79963C10.3996 4.44606 10.2587 4.10723 10.0086 3.85736C9.7584 3.6075 9.41941 3.46697 9.06584 3.46655ZM9.86631 6.40057C9.86631 6.43554 9.85942 6.47016 9.84604 6.50247C9.83265 6.53478 9.81304 6.56414 9.78831 6.58887C9.76358 6.6136 9.73422 6.63321 9.70191 6.6466C9.66961 6.65998 9.63498 6.66687 9.60001 6.66687H6.39969C6.32907 6.66687 6.26133 6.63881 6.21139 6.58887C6.16145 6.53893 6.13339 6.47119 6.13339 6.40057V4.79963C6.13328 4.59743 6.20985 4.40272 6.34764 4.25475C6.48544 4.10678 6.67421 4.01656 6.8759 4.00229C7.2281 4.16556 7.61165 4.25013 7.99985 4.25013C8.38805 4.25013 8.7716 4.16556 9.1238 4.00229C9.32549 4.01656 9.51426 4.10678 9.65206 4.25475C9.78985 4.40272 9.86641 4.59743 9.86631 4.79963V6.40057Z" fill="#F17EB8"/>
<path fill-rule="evenodd" clip-rule="evenodd" d="M13.6009 8.80054C13.2842 8.80054 12.9747 8.89447 12.7113 9.07045C12.448 9.24644 12.2428 9.49656 12.1217 9.78919C12.0006 10.0818 11.969 10.4038 12.0309 10.7144C12.0928 11.025 12.2454 11.3102 12.4695 11.5341C12.6935 11.7579 12.9789 11.9103 13.2896 11.9718C13.6002 12.0334 13.9222 12.0015 14.2147 11.8801C14.5072 11.7587 14.7571 11.5533 14.9328 11.2898C15.1086 11.0263 15.2022 10.7166 15.2019 10.3999C15.2019 10.1897 15.1605 9.98164 15.08 9.7875C14.9995 9.59335 14.8816 9.41697 14.7329 9.26843C14.5842 9.11989 14.4077 9.00212 14.2135 8.92183C14.0192 8.84155 13.8111 8.80033 13.6009 8.80054ZM13.6009 11.4635C13.39 11.4635 13.1837 11.401 13.0083 11.2838C12.8328 11.1665 12.6961 10.9999 12.6154 10.805C12.5346 10.6101 12.5135 10.3956 12.5547 10.1887C12.5958 9.98173 12.6974 9.79165 12.8466 9.64246C12.9958 9.49327 13.1859 9.39167 13.3928 9.3505C13.5998 9.30934 13.8142 9.33047 14.0092 9.41121C14.2041 9.49195 14.3707 9.62868 14.4879 9.80411C14.6051 9.97954 14.6677 10.1858 14.6677 10.3968C14.6681 10.5371 14.6408 10.6762 14.5874 10.806C14.534 10.9358 14.4555 11.0537 14.3564 11.1531C14.2573 11.2525 14.1395 11.3314 14.0099 11.3852C13.8803 11.439 13.7413 11.4667 13.6009 11.4667V11.4635Z" fill="#F17EB8"/>
<path fill-rule="evenodd" clip-rule="evenodd" d="M14.6666 12.2671H14.604L14.5476 12.2937C14.2533 12.4398 13.9292 12.5157 13.6006 12.5157C13.2721 12.5157 12.948 12.4398 12.6537 12.2937L12.5973 12.2671H12.5331C12.3577 12.2667 12.1839 12.3008 12.0217 12.3676C11.8596 12.4344 11.7121 12.5325 11.5879 12.6563C11.4636 12.7801 11.365 12.9272 11.2977 13.0892C11.2303 13.2511 11.1955 13.4248 11.1953 13.6002V15.2058C11.1953 15.4181 11.2796 15.6217 11.4298 15.7718C11.5799 15.9219 11.7835 16.0063 11.9958 16.0063H15.1961C15.3011 16.0063 15.4052 15.9856 15.5022 15.9453C15.5992 15.9051 15.6874 15.8461 15.7616 15.7717C15.8358 15.6974 15.8946 15.6091 15.9346 15.512C15.9747 15.4149 15.9952 15.3109 15.995 15.2058V13.6002C15.995 13.2466 15.8546 12.9075 15.6046 12.6575C15.3546 12.4075 15.0155 12.2671 14.6619 12.2671H14.6666ZM15.4671 15.2058C15.4671 15.2766 15.4391 15.3445 15.3892 15.3947C15.3393 15.4449 15.2716 15.4733 15.2008 15.4737H12.0005C11.9297 15.4733 11.862 15.4449 11.8121 15.3947C11.7622 15.3445 11.7342 15.2766 11.7342 15.2058V13.6002C11.7341 13.398 11.8106 13.2033 11.9484 13.0553C12.0862 12.9073 12.275 12.8171 12.4767 12.8028C12.8289 12.9661 13.2124 13.0507 13.6006 13.0507C13.9888 13.0507 14.3724 12.9661 14.7246 12.8028C14.9263 12.8171 15.1151 12.9073 15.2528 13.0553C15.3906 13.2033 15.4672 13.398 15.4671 13.6002V15.2058Z" fill="#F17EB8"/>
<path fill-rule="evenodd" clip-rule="evenodd" d="M2.39977 8.80054C2.08307 8.80054 1.77348 8.89447 1.51017 9.07045C1.24686 9.24644 1.04167 9.49656 0.920543 9.78919C0.799418 10.0818 0.767806 10.4038 0.829705 10.7144C0.891605 11.025 1.04424 11.3102 1.26829 11.5341C1.49234 11.7579 1.77775 11.9103 2.0884 11.9718C2.39906 12.0334 2.721 12.0015 3.01351 11.8801C3.30601 11.7587 3.55594 11.5533 3.73166 11.2898C3.90739 11.0263 4.00102 10.7166 4.00071 10.3999C4.00071 10.1897 3.95929 9.98164 3.87881 9.7875C3.79834 9.59335 3.68039 9.41697 3.53171 9.26843C3.38303 9.11989 3.20653 9.00212 3.0123 8.92183C2.81808 8.84155 2.60993 8.80033 2.39977 8.80054ZM2.39977 11.4635C2.18878 11.4635 1.98253 11.401 1.8071 11.2838C1.63167 11.1665 1.49494 10.9999 1.4142 10.805C1.33346 10.6101 1.31233 10.3956 1.35349 10.1887C1.39466 9.98173 1.49626 9.79165 1.64545 9.64246C1.79464 9.49327 1.98472 9.39167 2.19165 9.3505C2.39858 9.30934 2.61308 9.33047 2.808 9.41121C3.00293 9.49195 3.16954 9.62868 3.28676 9.80411C3.40397 9.97954 3.46654 10.1858 3.46654 10.3968C3.46716 10.5372 3.44001 10.6763 3.38666 10.8062C3.33331 10.9361 3.2548 11.0542 3.15566 11.1536C3.05652 11.253 2.9387 11.3319 2.80897 11.3856C2.67925 11.4393 2.54018 11.4669 2.39977 11.4667V11.4635Z" fill="#F17EB8"/>
<path fill-rule="evenodd" clip-rule="evenodd" d="M3.46661 12.2671H3.40396L3.34756 12.2937C3.05326 12.4398 2.72917 12.5157 2.40063 12.5157C2.07208 12.5157 1.74799 12.4398 1.45369 12.2937L1.3973 12.2671H1.33464C0.980942 12.2671 0.641708 12.4075 0.39146 12.6574C0.141211 12.9074 0.000415137 13.2465 0 13.6002V15.2058C0 15.4181 0.0843348 15.6217 0.234452 15.7718C0.384569 15.9219 0.588172 16.0063 0.80047 16.0063H4.00078C4.21308 16.0063 4.41668 15.9219 4.5668 15.7718C4.71692 15.6217 4.80125 15.4181 4.80125 15.2058V13.6002C4.80084 13.2465 4.66004 12.9074 4.40979 12.6574C4.15955 12.4075 3.82031 12.2671 3.46661 12.2671ZM4.26708 15.2058C4.26709 15.2766 4.23908 15.3445 4.18918 15.3947C4.13929 15.4449 4.07155 15.4733 4.00078 15.4737H0.80047C0.729699 15.4733 0.661967 15.4449 0.612071 15.3947C0.562174 15.3445 0.534168 15.2766 0.534169 15.2058V13.6002C0.534061 13.398 0.610624 13.2033 0.748419 13.0553C0.886214 12.9073 1.07499 12.8171 1.27668 12.8028C1.62888 12.9661 2.01242 13.0507 2.40063 13.0507C2.78883 13.0507 3.17237 12.9661 3.52457 12.8028C3.72626 12.8171 3.91504 12.9073 4.05283 13.0553C4.19063 13.2033 4.26719 13.398 4.26708 13.6002V15.2058Z" fill="#F17EB8"/>
<path fill-rule="evenodd" clip-rule="evenodd" d="M10.6453 13.5421C10.6316 13.5099 10.6117 13.4807 10.5867 13.4562C10.5618 13.4317 10.5322 13.4124 10.4998 13.3993C10.4674 13.3862 10.4327 13.3796 10.3977 13.3799C10.3627 13.3803 10.3281 13.3875 10.2959 13.4012C9.09267 13.905 7.7566 13.997 6.49565 13.6628L6.74472 13.5891C6.77836 13.5788 6.80964 13.562 6.83677 13.5397C6.86391 13.5173 6.88638 13.4898 6.90289 13.4587C6.9194 13.4277 6.92963 13.3937 6.933 13.3587C6.93637 13.3237 6.93281 13.2883 6.92252 13.2547C6.91223 13.2211 6.89542 13.1898 6.87305 13.1626C6.85068 13.1355 6.82318 13.113 6.79212 13.0965C6.76106 13.08 6.72706 13.0698 6.69205 13.0664C6.65704 13.063 6.62171 13.0666 6.58808 13.0769L5.52131 13.3902C5.52131 13.3902 5.52131 13.3902 5.51191 13.3902C5.4872 13.3992 5.46397 13.4119 5.44298 13.4278L5.41635 13.445C5.38832 13.4704 5.36591 13.5013 5.35056 13.5359C5.33602 13.5705 5.32907 13.6079 5.3302 13.6455C5.33667 13.6816 5.34556 13.7172 5.35683 13.752C5.35683 13.752 5.35683 13.7599 5.35683 13.7646L5.88943 14.7844C5.92507 14.8413 5.98094 14.8827 6.04583 14.9002C6.11072 14.9177 6.17982 14.9101 6.23929 14.8787C6.29875 14.8474 6.34418 14.7948 6.36645 14.7314C6.38872 14.668 6.38619 14.5985 6.35937 14.5369L6.1432 14.1217C7.57685 14.5537 9.11649 14.47 10.4949 13.8852C10.5273 13.8726 10.5569 13.8537 10.582 13.8296C10.6071 13.8055 10.6272 13.7767 10.6412 13.7448C10.6551 13.713 10.6627 13.6787 10.6634 13.6439C10.6641 13.6091 10.6579 13.5745 10.6453 13.5421Z" fill="#F17EB8"/>
<path fill-rule="evenodd" clip-rule="evenodd" d="M15.1233 7.01145C15.0985 6.98658 15.0691 6.96685 15.0367 6.95339C15.0043 6.93992 14.9696 6.93299 14.9345 6.93299C14.8994 6.93299 14.8647 6.93992 14.8323 6.95339C14.7999 6.96685 14.7705 6.98658 14.7458 7.01145L14.3682 7.38897C14.26 6.24234 13.8439 5.14629 13.1639 4.21674C12.4839 3.28719 11.5653 2.55871 10.5053 2.10837C10.4731 2.09469 10.4385 2.08749 10.4036 2.08717C10.3686 2.08685 10.3339 2.09343 10.3014 2.10652C10.269 2.11961 10.2395 2.13896 10.2145 2.16347C10.1895 2.18798 10.1697 2.21716 10.156 2.24936C10.1423 2.28155 10.1351 2.31612 10.1348 2.3511C10.1345 2.38608 10.141 2.42078 10.1541 2.45322C10.1672 2.48565 10.1866 2.5152 10.2111 2.54015C10.2356 2.56511 10.2648 2.585 10.297 2.59868C11.2485 3.0034 12.076 3.65261 12.6955 4.48043C13.3151 5.30825 13.7046 6.28521 13.8247 7.31221L13.5223 7.01145C13.4723 6.96159 13.4045 6.93367 13.3338 6.93381C13.2632 6.93396 13.1955 6.96217 13.1456 7.01223C13.0957 7.06229 13.0678 7.13011 13.068 7.20076C13.0681 7.27141 13.0963 7.33911 13.1464 7.38897L13.9453 8.18787C13.9955 8.23771 14.0633 8.26568 14.134 8.26568C14.2048 8.26568 14.2726 8.23771 14.3228 8.18787L15.1217 7.38897C15.1718 7.33899 15.2 7.27126 15.2003 7.20053C15.2006 7.12981 15.1729 7.06184 15.1233 7.01145Z" fill="#F17EB8"/>
<path fill-rule="evenodd" clip-rule="evenodd" d="M5.86082 2.30907C5.86245 2.29397 5.86245 2.27874 5.86082 2.26364C5.86082 2.26364 5.86082 2.26364 5.86082 2.25581C5.84191 2.22874 5.82311 2.20158 5.80442 2.17436C5.78844 2.1611 5.77112 2.14955 5.75273 2.13989C5.74348 2.13172 5.73352 2.12438 5.72297 2.11796L4.64523 1.62452C4.61335 1.61002 4.57892 1.60194 4.54391 1.60074C4.5089 1.59954 4.474 1.60526 4.4412 1.61755C4.4084 1.62984 4.37834 1.64847 4.35274 1.67238C4.32713 1.69629 4.30649 1.725 4.29199 1.75689C4.27749 1.78877 4.26941 1.8232 4.26821 1.85821C4.26701 1.89322 4.27272 1.92812 4.28502 1.96092C4.29731 1.99373 4.31594 2.02378 4.33985 2.04939C4.36376 2.07499 4.39247 2.09563 4.42436 2.11013L4.97576 2.36077C3.95531 2.907 3.10239 3.72016 2.50811 4.71339C1.91382 5.70663 1.60049 6.84264 1.60157 8.00009C1.60157 8.07071 1.62962 8.13845 1.67956 8.18839C1.7295 8.23833 1.79724 8.26639 1.86787 8.26639C1.93849 8.26639 2.00623 8.23833 2.05617 8.18839C2.10611 8.13845 2.13417 8.07071 2.13417 8.00009C2.13336 6.97944 2.39935 5.97631 2.90576 5.09016C3.41218 4.20401 4.14142 3.46562 5.02119 2.9482L4.82851 3.35078C4.81234 3.38236 4.80264 3.41686 4.79998 3.45224C4.79733 3.48762 4.80177 3.52318 4.81305 3.55682C4.82433 3.59046 4.84222 3.62151 4.86567 3.64814C4.88911 3.67477 4.91765 3.69644 4.94959 3.71189C4.98153 3.72734 5.01624 3.73625 5.05167 3.7381C5.08711 3.73995 5.12255 3.7347 5.15593 3.72265C5.1893 3.71061 5.21993 3.69202 5.24602 3.66797C5.27211 3.64392 5.29313 3.6149 5.30785 3.58262L5.84045 2.46885C5.84662 2.45045 5.85133 2.4316 5.85455 2.41246C5.86081 2.39556 5.86604 2.3783 5.87022 2.36077C5.87022 2.34353 5.87022 2.3263 5.86082 2.30907Z" fill="#F17EB8"/>
</g>
</g>
<defs>
<clipPath id="clip0_1315_140">
<rect width="16" height="16" fill="white"/>
</clipPath>
<clipPath id="clip1_1315_140">
<rect width="16" height="16" fill="white"/>
</clipPath>
</defs>
</svg>
