<svg width="17" height="17" viewBox="0 0 17 17" fill="none" xmlns="http://www.w3.org/2000/svg">
<g clip-path="url(#clip0_1_2)">
<path d="M8.49977 0.000183105C7.56091 0.000183105 6.79982 0.761278 6.79982 1.70014C6.79982 2.63899 7.56091 3.40009 8.49977 3.40009C9.43863 3.40009 10.1997 2.63899 10.1997 1.70014C10.1997 0.761278 9.43863 0.000183105 8.49977 0.000183105ZM8.49977 2.83344C7.87386 2.83344 7.36647 2.32604 7.36647 1.70014C7.36647 1.07423 7.87386 0.566834 8.49977 0.566834C9.12567 0.566834 9.63307 1.07423 9.63307 1.70014C9.63307 2.32604 9.12567 2.83344 8.49977 2.83344ZM9.63307 3.68341H9.56224L9.50203 3.71175C8.8694 4.0306 8.12305 4.0306 7.49042 3.71175L7.4373 3.68341H7.36647C6.58409 3.68341 5.94984 4.31766 5.94984 5.10004V6.79999C5.94889 7.02571 6.03814 7.24245 6.19775 7.40206C6.35736 7.56167 6.5741 7.65092 6.79982 7.64997H10.1997C10.4254 7.65092 10.6422 7.56167 10.8018 7.40206C10.9614 7.24245 11.0506 7.02571 11.0497 6.79999V5.10004C11.0497 4.31766 10.4155 3.68341 9.63307 3.68341ZM10.483 6.79999C10.483 6.87514 10.4532 6.9472 10.4001 7.00033C10.3469 7.05347 10.2749 7.08332 10.1997 7.08332H6.79982C6.72467 7.08332 6.65261 7.05347 6.59948 7.00033C6.54634 6.9472 6.51649 6.87514 6.51649 6.79999V5.10004C6.51361 4.65247 6.85968 4.28002 7.30626 4.25006C8.06311 4.6016 8.93643 4.6016 9.69328 4.25006C10.1399 4.28002 10.4859 4.65247 10.483 5.10004V6.79999ZM14.4496 9.34992C13.5107 9.34992 12.7497 10.111 12.7497 11.0499C12.7497 11.9887 13.5107 12.7498 14.4496 12.7498C15.3885 12.7498 16.1496 11.9887 16.1496 11.0499C16.1496 10.111 15.3885 9.34992 14.4496 9.34992ZM14.4496 12.1832C13.8237 12.1832 13.3163 11.6758 13.3163 11.0499C13.3163 10.424 13.8237 9.91657 14.4496 9.91657C15.0755 9.91657 15.5829 10.424 15.5829 11.0499C15.5829 11.3504 15.4635 11.6387 15.251 11.8512C15.0384 12.0638 14.7502 12.1832 14.4496 12.1832ZM15.5829 13.0332H15.5156L15.4554 13.0615C14.8219 13.3764 14.0774 13.3764 13.4438 13.0615L13.3836 13.0332H13.3163C12.5339 13.0332 11.8997 13.6674 11.8997 14.4498V16.1497C11.8987 16.3754 11.988 16.5922 12.1476 16.7518C12.3072 16.9114 12.5239 17.0007 12.7497 16.9997H16.1496C16.3753 17.0007 16.592 16.9114 16.7516 16.7518C16.9112 16.5922 17.0005 16.3754 16.9995 16.1497V14.4498C16.9995 13.6674 16.3653 13.0332 15.5829 13.0332ZM16.4329 16.1497C16.4329 16.3062 16.306 16.4331 16.1496 16.4331H12.7497C12.5932 16.4331 12.4663 16.3062 12.4663 16.1497V14.4498C12.4653 14.0036 12.8109 13.6332 13.2561 13.6033C14.0129 13.9549 14.8863 13.9549 15.6431 13.6033C16.0883 13.6332 16.4339 14.0036 16.4329 14.4498V16.1497ZM2.54994 9.34992C1.61108 9.34992 0.849984 10.111 0.849984 11.0499C0.849984 11.9887 1.61108 12.7498 2.54994 12.7498C3.48879 12.7498 4.24989 11.9887 4.24989 11.0499C4.24989 10.111 3.48879 9.34992 2.54994 9.34992ZM2.54994 12.1832C1.92403 12.1832 1.41663 11.6758 1.41663 11.0499C1.41663 10.424 1.92403 9.91657 2.54994 9.91657C3.17584 9.91657 3.68324 10.424 3.68324 11.0499C3.68324 11.6758 3.17584 12.1832 2.54994 12.1832ZM3.68324 13.0332H3.61595L3.55574 13.0615C2.92219 13.3764 2.17769 13.3764 1.54413 13.0615L1.48392 13.0332H1.41663C0.634253 13.0332 7.45102e-06 13.6674 7.45102e-06 14.4498V16.1497C-0.000938962 16.3754 0.0883079 16.5922 0.247915 16.7518C0.407522 16.9114 0.624267 17.0007 0.849984 16.9997H4.24989C4.4756 17.0007 4.69235 16.9114 4.85196 16.7518C5.01156 16.5922 5.10081 16.3754 5.09986 16.1497V14.4498C5.09986 13.6674 4.46562 13.0332 3.68324 13.0332ZM4.53321 16.1497C4.53321 16.3062 4.40636 16.4331 4.24989 16.4331H0.849984C0.693507 16.4331 0.566658 16.3062 0.566658 16.1497V14.4498C0.565657 14.0036 0.911218 13.6332 1.35643 13.6033C2.11327 13.9549 2.9866 13.9549 3.74344 13.6033C4.18865 13.6332 4.53421 14.0036 4.53321 14.4498V16.1497ZM11.3118 14.3896C11.2487 14.2473 11.0837 14.1814 10.9399 14.2408C9.66076 14.7776 8.23991 14.876 6.89898 14.5206L7.16106 14.4427C7.31166 14.3997 7.39887 14.2427 7.35584 14.0921C7.31281 13.9415 7.15584 13.8543 7.00523 13.8973L5.87193 14.2302C5.84653 14.2396 5.82267 14.2528 5.80109 14.2692L5.77276 14.2869C5.74309 14.3138 5.71902 14.3463 5.70193 14.3825C5.68088 14.4257 5.66883 14.4726 5.66652 14.5206C5.66652 14.556 5.68422 14.595 5.69485 14.6339L6.2615 15.7177C6.29621 15.7844 6.35603 15.8346 6.42778 15.8572C6.49952 15.8798 6.57731 15.8729 6.64399 15.8381C6.78137 15.7645 6.83483 15.5946 6.7644 15.4556L6.5342 15.0164C8.05704 15.4735 9.69169 15.3846 11.1559 14.765C11.2265 14.736 11.2826 14.6801 11.3118 14.6096C11.3411 14.5392 11.341 14.46 11.3118 14.3896ZM16.0681 7.43747C15.9563 7.32674 15.7762 7.32674 15.6644 7.43747L15.2642 7.85184C15.0303 5.36986 13.4543 3.21596 11.1595 2.242C11.0649 2.19336 10.951 2.20178 10.8647 2.26382C10.7783 2.32586 10.7339 2.43106 10.7498 2.53623C10.7656 2.6414 10.8391 2.72882 10.9399 2.76261C12.9975 3.6379 14.4278 5.54938 14.6869 7.77038L14.3681 7.4481C14.2541 7.35449 14.0876 7.36267 13.9833 7.467C13.879 7.57133 13.8708 7.73779 13.9644 7.85184L14.8144 8.70181C14.9262 8.81255 15.1063 8.81255 15.2181 8.70181L16.0681 7.85184C16.1246 7.79773 16.1566 7.72289 16.1566 7.64466C16.1566 7.56642 16.1246 7.49158 16.0681 7.43747ZM6.22608 2.45449V2.40491C6.21995 2.39068 6.21158 2.37753 6.20129 2.36595L6.16942 2.31991C6.1529 2.30378 6.13373 2.2906 6.11275 2.28095C6.10298 2.27267 6.09229 2.26554 6.08088 2.2597L4.94758 1.73909C4.80691 1.68979 4.6521 1.75791 4.59342 1.89492C4.53937 2.03001 4.59788 2.18398 4.728 2.24908L5.31236 2.51824C3.09632 3.69241 1.70754 5.99207 1.69996 8.49994C1.69996 8.65642 1.82681 8.78327 1.98329 8.78327C2.13976 8.78327 2.26661 8.65642 2.26661 8.49994C2.26594 6.2934 3.43256 4.25113 5.33361 3.13093L5.1282 3.55946C5.06169 3.7004 5.11987 3.86865 5.25924 3.93841C5.29806 3.95657 5.34033 3.96623 5.38319 3.96674C5.49169 3.96682 5.59071 3.90493 5.63818 3.80737L6.20483 2.62448C6.20685 2.60447 6.20685 2.5843 6.20483 2.56428V2.51824C6.21452 2.49795 6.22165 2.47653 6.22608 2.45449Z" fill="#C4C4C4"/>
<path d="M8.49977 3.06842C9.2239 3.06842 9.81093 2.48139 9.81093 1.75725C9.81093 1.03311 9.2239 0.446083 8.49977 0.446083C7.77563 0.446083 7.1886 1.03311 7.1886 1.75725C7.1886 2.48139 7.77563 3.06842 8.49977 3.06842Z" fill="#C4C4C4"/>
<path d="M14.4338 12.3842C15.158 12.3842 15.745 11.7971 15.745 11.073C15.745 10.3488 15.158 9.76182 14.4338 9.76182C13.7097 9.76182 13.1227 10.3488 13.1227 11.073C13.1227 11.7971 13.7097 12.3842 14.4338 12.3842Z" fill="#C4C4C4"/>
<path d="M2.61494 12.4358C3.33908 12.4358 3.92611 11.8488 3.92611 11.1246C3.92611 10.4005 3.33908 9.81345 2.61494 9.81345C1.8908 9.81345 1.30377 10.4005 1.30377 11.1246C1.30377 11.8488 1.8908 12.4358 2.61494 12.4358Z" fill="#C4C4C4"/>
<path d="M10.6224 4.91705H6.37708V7.11735H10.6224V4.91705Z" fill="#C4C4C4"/>
<path d="M16.5197 14.2318H12.2744V16.4321H16.5197V14.2318Z" fill="#C4C4C4"/>
<path d="M4.649 14.2671H0.403656V16.4674H4.649V14.2671Z" fill="#C4C4C4"/>
<path d="M10.4749 4.17976H6.52457V5.39003H10.4749V4.17976Z" fill="#C4C4C4"/>
<path d="M4.50253 13.3888H0.552002V14.599H4.50253V13.3888Z" fill="#C4C4C4"/>
<path d="M16.4603 13.4757H12.5097V14.6859H16.4603V13.4757Z" fill="#C4C4C4"/>
</g>
<defs>
<clipPath id="clip0_1_2">
<rect width="17" height="17" fill="white"/>
</clipPath>
</defs>
</svg>